#!OML:ASF X:\für Bonn\!DataBase\2005_08_10_Bjorn_Final\c3d\bjorn.ASF
:FULLY-SPECIFIED
:DEGREES
336
root -1.18504 18.8808 2.96859 -540.285 33.3855 -538.721
lowerback -2.75856 5.6724 1.59747
upperback 5.46127 7.99809 -2.97014
thorax 7.9305 4.24886 -3.18918
lowerneck 0.740107 1.49556 11.9619
upperneck 14.1353 3.13374 -6.0331
head 4.37339 2.1561 -3.70301
rclavicle -3.1408e-014 -8.74653e-015
rhumerus 83.2646 17.2114 -72.0403
rradius 37.1716
rwrist 30.7021
rhand -25.7653 10.0696
rfingers 7.12502
rthumb 0.772377 -19.9088
lclavicle -3.1408e-014 -8.74653e-015
lhumerus 51.1585 -15.6542 83.9515
lradius 72.9602
lwrist 51.7735
lhand -46.8607 -3.02991
lfingers 7.12502
lthumb -19.5734 26.0048
rfemur 364.629 7.19667 -354.138
rtibia 38.603
rfoot -3.16154 0.401916
rtoes -37.4845
lfemur -18.7008 -1.20914 -17.3312
ltibia 44.2528
lfoot -15.3008 5.79535
ltoes -18.7464
337
root -1.18007 18.9073 2.97356 -540.146 33.4459 -538.654
lowerback -2.85594 5.69134 1.60109
upperback 5.42436 8.01853 -2.97666
thorax 7.95035 4.25659 -3.18744
lowerneck 0.577813 1.49419 12.03
upperneck 14.3326 3.14125 -6.17373
head 4.46321 2.1613 -3.75747
rclavicle -4.27387e-014 3.18055e-015
rhumerus 83.3751 17.2096 -72.18
rradius 37.0923
rwrist 31.0387
rhand -25.7906 10.0631
rfingers 7.12502
rthumb 0.748008 -19.9153
lclavicle -4.27387e-014 3.18055e-015
lhumerus 51.3807 -15.6442 83.8708
lradius 72.7339
lwrist 51.661
lhand -46.7629 -2.97856
lfingers 7.12502
lthumb -19.4793 26.0657
rfemur 364.456 6.91698 -354.049
rtibia 38.574
rfoot -2.92586 0.104084
rtoes -37.7636
lfemur -18.5322 -1.28962 -17.2377
ltibia 43.7539
lfoot -15.0296 5.86607
ltoes -18.7778
338
root -1.17476 18.93 2.97884 -540.057 33.5042 -538.551
lowerback -2.89927 5.70071 1.62312
upperback 5.41157 8.02331 -2.94279
thorax 7.95983 4.25701 -3.15975
lowerneck 0.495491 1.498 12.0275
upperneck 14.4419 3.15831 -6.28363
head 4.51228 2.16687 -3.79083
rclavicle -4.37326e-014 -4.77083e-015
rhumerus 83.5339 17.2262 -72.2484
rradius 37.0002
rwrist 31.3391
rhand -25.8533 10.0556
rfingers 7.12502
rthumb 0.687409 -19.923
lclavicle -4.37326e-014 -4.77083e-015
lhumerus 51.5889 -15.6127 83.7956
lradius 72.5278
lwrist 51.6227
lhand -46.7246 -3.01341
lfingers 7.12502
lthumb -19.4425 26.0346
rfemur 364.364 6.69261 -353.902
rtibia 38.5588
rfoot -2.76716 -0.221491
rtoes -38.0425
lfemur -18.3168 -1.31285 -17.1118
ltibia 43.3077
lfoot -14.7804 5.94091
ltoes -19.092
339
root -1.1704 18.9456 2.98488 -540.047 33.5744 -538.47
lowerback -2.85923 5.70936 1.65318
upperback 5.40411 8.03009 -2.92282
thorax 7.93021 4.26091 -3.15924
lowerneck 0.409007 1.51182 12.0665
upperneck 14.5359 3.18868 -6.42116
head 4.55973 2.17859 -3.83914
rclavicle -2.76311e-014 1.66979e-014
rhumerus 83.735 17.2223 -72.2332
rradius 36.9146
rwrist 31.4015
rhand -25.8955 10.0836
rfingers 7.12502
rthumb 0.646649 -19.8952
lclavicle -2.76311e-014 1.66979e-014
lhumerus 51.7609 -15.5753 83.7117
lradius 72.3487
lwrist 51.5925
lhand -46.6905 -2.98342
lfingers 7.12502
lthumb -19.4097 26.0678
rfemur 364.355 6.55622 -353.758
rtibia 38.5465
rfoot -2.65946 -0.542048
rtoes -38.1637
lfemur -18.0613 -1.26338 -17.0093
ltibia 42.9291
lfoot -14.5771 5.96532
ltoes -19.5084
340
root -1.16644 18.9527 2.99195 -540.183 33.6258 -538.454
lowerback -2.71744 5.7022 1.64933
upperback 5.42538 8.023 -2.90529
thorax 7.8669 4.25872 -3.15362
lowerneck 0.349886 1.52375 12.0467
upperneck 14.6077 3.2145 -6.50655
head 4.59398 2.18739 -3.86164
rclavicle -3.24019e-014 1.98785e-014
rhumerus 83.9213 17.2371 -72.1533
rradius 36.846
rwrist 31.3259
rhand -26.0158 10.0585
rfingers 7.12502
rthumb 0.530484 -19.9206
lclavicle -3.24019e-014 1.98785e-014
lhumerus 51.8911 -15.5322 83.6535
lradius 72.19
lwrist 51.6307
lhand -46.7174 -2.98624
lfingers 7.12502
lthumb -19.4356 26.0624
rfemur 364.482 6.43344 -353.67
rtibia 38.5401
rfoot -2.61237 -0.82581
rtoes -38.4135
lfemur -17.7281 -1.17405 -16.9621
ltibia 42.614
lfoot -14.4259 5.94312
ltoes -19.8808
341
root -1.16319 18.9547 2.99895 -540.385 33.6912 -538.479
lowerback -2.54971 5.70558 1.64199
upperback 5.464 8.03488 -2.90369
thorax 7.81103 4.26787 -3.16227
lowerneck 0.347419 1.53509 11.9928
upperneck 14.6191 3.23449 -6.51825
head 4.59876 2.19424 -3.8556
rclavicle -4.55217e-014 2.06736e-014
rhumerus 84.1065 17.2188 -72.0281
rradius 36.8015
rwrist 31.1398
rhand -26.1544 10.0711
rfingers 7.12502
rthumb 0.396578 -19.9083
lclavicle -4.55217e-014 2.06736e-014
lhumerus 51.9732 -15.5067 83.5646
lradius 72.1292
lwrist 51.6842
lhand -46.7881 -2.96038
lfingers 7.12502
lthumb -19.5036 26.0814
rfemur 364.663 6.3814 -353.612
rtibia 38.5297
rfoot -2.62847 -1.09827
rtoes -38.4798
lfemur -17.3968 -1.00929 -16.9557
ltibia 42.3819
lfoot -14.3427 5.86615
ltoes -20.3297
342
root -1.15995 18.9504 3.00683 -540.634 33.7492 -538.547
lowerback -2.38046 5.69953 1.61097
upperback 5.5318 8.03973 -2.90744
thorax 7.78274 4.27405 -3.16283
lowerneck 0.429911 1.54451 11.9145
upperneck 14.5299 3.25135 -6.50097
head 4.55768 2.19738 -3.83692
rclavicle 8.34896e-015 -1.66979e-014
rhumerus 84.2574 17.2263 -71.8927
rradius 36.826
rwrist 30.948
rhand -26.3777 10.0339
rfingers 7.12502
rthumb 0.180995 -19.9458
lclavicle 8.34896e-015 -1.66979e-014
lhumerus 52.054 -15.4688 83.5263
lradius 72.1142
lwrist 51.7587
lhand -46.9017 -2.94069
lfingers 7.12502
lthumb -19.6128 26.09
rfemur 364.89 6.35867 -353.595
rtibia 38.5237
rfoot -2.72804 -1.32585
rtoes -38.6472
lfemur -17.089 -0.779743 -16.9786
ltibia 42.234
lfoot -14.3279 5.71654
ltoes -20.7223
343
root -1.15776 18.9405 3.01501 -540.837 33.8018 -538.575
lowerback -2.2426 5.70301 1.66424
upperback 5.59347 8.05319 -2.92768
thorax 7.78184 4.28979 -3.2223
lowerneck 0.606776 1.53845 11.8486
upperneck 14.3847 3.25403 -6.4607
head 4.48249 2.19626 -3.81439
rclavicle -5.68524e-014 4.13472e-014
rhumerus 84.3313 17.2133 -71.8426
rradius 36.9288
rwrist 30.7676
rhand -26.5621 10.0365
rfingers 7.12502
rthumb 0.00287994 -19.9432
lclavicle -5.68524e-014 4.13472e-014
lhumerus 52.1309 -15.4621 83.4659
lradius 72.1195
lwrist 51.7498
lhand -47.0261 -2.73394
lfingers 7.12502
lthumb -19.7324 26.2845
rfemur 365.105 6.35212 -353.547
rtibia 38.5132
rfoot -2.8757 -1.50842
rtoes -38.7799
lfemur -16.8688 -0.615897 -16.9686
ltibia 42.1848
lfoot -14.3806 5.62646
ltoes -21.0767
344
root -1.15618 18.925 3.0231 -540.993 33.8591 -538.58
lowerback -2.1553 5.69981 1.72328
upperback 5.66463 8.05478 -2.92353
thorax 7.81655 4.2985 -3.2548
lowerneck 0.781951 1.54 11.7148
upperneck 14.2045 3.26275 -6.41281
head 4.39627 2.19277 -3.77802
rclavicle -5.36719e-014 4.13472e-014
rhumerus 84.4078 17.2226 -71.7325
rradius 37.1173
rwrist 30.4919
rhand -26.6889 9.97968
rfingers 7.12502
rthumb -0.119608 -20
lclavicle -5.36719e-014 4.13472e-014
lhumerus 52.1721 -15.4107 83.473
lradius 72.182
lwrist 51.7133
lhand -47.1672 -2.42624
lfingers 7.12502
lthumb -19.868 26.5782
rfemur 365.294 6.38114 -353.486
rtibia 38.5059
rfoot -3.13645 -1.64105
rtoes -38.8717
lfemur -16.7364 -0.367239 -16.9334
ltibia 42.2351
lfoot -14.517 5.49065
ltoes -21.4013
345
root -1.15512 18.9042 3.03128 -541.137 33.8866 -538.625
lowerback -2.09759 5.7031 1.79603
upperback 5.71405 8.06732 -2.96692
thorax 7.85559 4.31504 -3.34115
lowerneck 1.00073 1.51337 11.6535
upperneck 14.0398 3.239 -6.34846
head 4.30584 2.18081 -3.75028
rclavicle 8.34896e-015 3.49861e-014
rhumerus 84.4044 17.1866 -71.7122
rradius 37.3472
rwrist 30.2217
rhand -26.82 9.97085
rfingers 7.12502
rthumb -0.24624 -20.0088
lclavicle 8.34896e-015 3.49861e-014
lhumerus 52.1674 -15.4201 83.4217
lradius 72.2812
lwrist 51.6399
lhand -47.2921 -2.10435
lfingers 7.12502
lthumb -19.988 26.8876
rfemur 365.469 6.42251 -353.459
rtibia 38.4953
rfoot -3.4975 -1.74032
rtoes -39.1952
lfemur -16.6945 -0.304295 -16.9473
ltibia 42.3859
lfoot -14.7313 5.46927
ltoes -21.6102
